<?xml version="1.0" encoding="utf-8"?>
<!-- Generator: Adobe Illustrator 26.0.1, SVG Export Plug-In . SVG Version: 6.00 Build 0)  -->
<svg version="1.1" id="Warstwa_1" xmlns="http://www.w3.org/2000/svg" xmlns:xlink="http://www.w3.org/1999/xlink" x="0px" y="0px"
	 viewBox="0 0 1904.4 1697.3" style="enable-background:new 0 0 1904.4 1697.3;" xml:space="preserve">
<style type="text/css">
	.st0{fill:#0045CB;}
</style>
<path class="st0" d="M-16.7,1087.2h1929.8v422c-74.9,0-149.9,0-224.8,0c-568.3,0-1136.6,0-1704.9,0
	C-16.7,1368.6-16.7,1227.9-16.7,1087.2z"/>
<g id="XMLID_00000023963154737799706720000012042709430144439430_">
	<g>
		<path class="st0" d="M1905.2,1507.7c-0.2,27.3-0.3,54.6-0.5,82c-24.4-15.9-55.1-33.1-92-48.1c-47-19.1-89.9-28.8-123.8-33.8
			H1905.2z"/>
		<path class="st0" d="M1703.2,1507.3h-4.7C1700.1,1507.3,1701.7,1507.3,1703.2,1507.3z"/>
		<path class="st0" d="M-0.4,1507.2h1698.9c-110.7,1.2-137.1,80.8-267,114c-157.4,40.2-191.6-57.9-378-37
			c-187,21-208.3,125.9-339,106c-151-23-174.1-170.9-298-162c-101,7.3-128.7,108.7-247,116c-70.3,4.3-130.1-27.2-170-55V1507.2z"/>
	</g>
</g>
<rect x="-9" y="751.3" class="st0" width="1928.7" height="374"/>
<rect x="-6.1" y="338.5" class="st0" width="1924.9" height="422"/>
<rect x="-6.1" class="st0" width="1924.9" height="374"/>
</svg>
